<?xml version="1.0" encoding="iso-8859-1"?>
<!-- Generator: Adobe Illustrator 16.0.0, SVG Export Plug-In . SVG Version: 6.00 Build 0)  -->
<!DOCTYPE svg PUBLIC "-//W3C//DTD SVG 1.1//EN" "http://www.w3.org/Graphics/SVG/1.1/DTD/svg11.dtd">
<svg version="1.1" id="Capa_1" xmlns="http://www.w3.org/2000/svg" xmlns:xlink="http://www.w3.org/1999/xlink" x="0px" y="0px"
	 width="73.098px" height="73.097px" viewBox="0 0 73.098 73.097" style="enable-background:new 0 0 73.098 73.097;"
	 xml:space="preserve">
<g>
	<g>
		<path d="M33.022,25.949v6.668c-2.417,0.037-4.375,2.011-4.375,4.438c0,0.043,0.014,0.082,0.025,0.123
			c-0.01,0.039-0.025,0.078-0.025,0.123c0,2.426,1.957,4.397,4.375,4.436v4.223c-1.866-0.037-3.375-1.564-3.375-3.439
			c0-0.274-0.224-0.5-0.5-0.5c-0.276,0-0.5,0.226-0.5,0.5c0,2.427,1.957,4.398,4.375,4.439v6.91
			c-0.035-0.008-0.067-0.021-0.104-0.021c-1.898,0-3.443-1.543-3.443-3.441c0-0.273-0.224-0.5-0.5-0.5c-0.276,0-0.5,0.227-0.5,0.5
			c0,2.449,1.993,4.441,4.443,4.441c0.037,0,0.069-0.012,0.104-0.021v1.035c0,0.146,0.063,0.282,0.172,0.377l3.081,2.674
			c0.094,0.082,0.211,0.123,0.328,0.123c0.117,0,0.234-0.041,0.328-0.123l3.082-2.674c0.109-0.099,0.173-0.231,0.173-0.377v-0.838
			c2.211-0.253,3.942-2.113,3.942-4.394c0-0.041-0.015-0.076-0.022-0.113c0.008-0.036,0.022-0.071,0.022-0.112
			c0-2.278-1.731-4.144-3.942-4.396v-4.219c1.659,0.244,2.942,1.666,2.942,3.395c0,0.273,0.224,0.5,0.5,0.5s0.5-0.227,0.5-0.5
			c0-2.278-1.731-4.143-3.942-4.395v-7.17c1.834,0.072,3.307,1.576,3.307,3.43c0,0.275,0.227,0.5,0.5,0.5c0.275,0,0.5-0.225,0.5-0.5
			c0-2.4-1.922-4.354-4.307-4.43v-6.675c1.822-1.208,2.902-3.206,2.902-5.397c0-3.576-2.909-6.484-6.485-6.484
			c-3.576,0-6.485,2.909-6.485,6.484C30.118,22.745,31.198,24.741,33.022,25.949z M29.647,37.3c0-0.045-0.014-0.084-0.025-0.123
			c0.01-0.041,0.025-0.08,0.025-0.123c0-1.875,1.508-3.398,3.375-3.438v7.118C31.155,40.698,29.647,39.175,29.647,37.3z
			 M34.022,41.743h5.164v4.22h-5.164V41.743z M39.184,55.634l-2.582,2.24l-2.581-2.24v-8.672h5.163V55.634z M43.127,50.405
			c0,0.039,0.014,0.076,0.023,0.112c-0.013,0.037-0.023,0.072-0.023,0.113c0,1.729-1.283,3.146-2.943,3.394v-7.013
			C41.845,47.257,43.127,48.677,43.127,50.405z M36.603,15.067c3.024,0,5.485,2.46,5.485,5.484c0,1.936-0.995,3.689-2.662,4.695
			c-0.15,0.091-0.242,0.254-0.242,0.429v15.066h-5.163V25.675c0-0.175-0.092-0.338-0.242-0.429
			c-1.667-1.005-2.662-2.761-2.662-4.695C31.118,17.527,33.578,15.067,36.603,15.067z"/>
		<path d="M0.5,19.714h1.612v4.146c0,0.276,0.224,0.5,0.5,0.5h1.964v4.147c0,0.274,0.224,0.5,0.5,0.5h24.969
			c0.213,0,0.404-0.137,0.473-0.338c0.069-0.202,0.002-0.428-0.166-0.559c-1.472-1.145-2.584-2.674-3.218-4.423
			c-0.396-1.094-0.598-2.221-0.598-3.35c0-0.363,0.023-0.721,0.061-1.073c0.171-1.58,0.729-3.108,1.613-4.421
			c0.104-0.153,0.114-0.352,0.027-0.515c-0.087-0.162-0.256-0.266-0.441-0.266H0.5c-0.276,0-0.5,0.225-0.5,0.5v4.647
			C0,19.489,0.223,19.714,0.5,19.714z M3.112,19.714h22.444c-0.013,0.207-0.02,0.416-0.02,0.626c0,1.016,0.147,2.027,0.438,3.021
			H5.076H3.112V19.714z M5.576,28.008v-3.647h20.743c0.547,1.37,1.365,2.608,2.404,3.647H5.576z M1,15.067h25.904
			c-0.626,1.127-1.049,2.368-1.243,3.647H2.612H1V15.067z"/>
		<path d="M10.498,16.475c0.276,0,0.5-0.224,0.5-0.5c0-0.276-0.224-0.5-0.5-0.5H2.612c-0.276,0-0.5,0.224-0.5,0.5
			c0,0.276,0.224,0.5,0.5,0.5H10.498z"/>
		<path d="M12.328,16.475h1.82c0.276,0,0.5-0.224,0.5-0.5c0-0.276-0.224-0.5-0.5-0.5h-1.82c-0.276,0-0.5,0.224-0.5,0.5
			C11.828,16.251,12.052,16.475,12.328,16.475z"/>
		<path d="M42.746,28.113c-0.168,0.131-0.235,0.354-0.166,0.559c0.068,0.203,0.26,0.338,0.473,0.338h24.969
			c0.276,0,0.5-0.226,0.5-0.5v-4.147h1.965c0.275,0,0.5-0.224,0.5-0.5v-4.146h1.611c0.276,0,0.5-0.226,0.5-0.5V14.57
			c0-0.274-0.224-0.5-0.5-0.5H45.302c-0.185,0-0.354,0.104-0.44,0.267c-0.088,0.162-0.078,0.359,0.026,0.514
			c0.884,1.313,1.442,2.842,1.613,4.421c0.038,0.354,0.062,0.71,0.062,1.073c0,1.129-0.201,2.256-0.599,3.35
			C45.331,25.44,44.218,26.969,42.746,28.113z M67.521,28.008H44.375c1.039-1.039,1.857-2.277,2.404-3.647h20.742V28.008
			L67.521,28.008z M69.986,23.361h-1.965H47.124c0.291-0.992,0.438-2.005,0.438-3.021c0-0.21-0.011-0.419-0.021-0.626h22.443v3.646
			L69.986,23.361L69.986,23.361z M46.193,15.067h25.904v3.647h-1.611H47.438C47.244,17.435,46.82,16.194,46.193,15.067z"/>
		<path d="M62.602,16.475h7.885c0.276,0,0.5-0.224,0.5-0.5c0-0.276-0.224-0.5-0.5-0.5h-7.885c-0.277,0-0.5,0.224-0.5,0.5
			C62.102,16.251,62.324,16.475,62.602,16.475z"/>
		<path d="M58.949,16.475h1.82c0.273,0,0.5-0.224,0.5-0.5c0-0.276-0.227-0.5-0.5-0.5h-1.82c-0.275,0-0.5,0.224-0.5,0.5
			C58.449,16.251,58.674,16.475,58.949,16.475z"/>
		<path d="M37.957,37.052c0.275,0,0.5-0.226,0.5-0.5v-9.734c0-0.274-0.225-0.5-0.5-0.5c-0.276,0-0.5,0.226-0.5,0.5v9.734
			C37.457,36.827,37.681,37.052,37.957,37.052z"/>
		<path d="M39.382,18.811c0.099,0.098,0.226,0.146,0.354,0.146c0.127,0,0.256-0.051,0.354-0.146c0.195-0.195,0.195-0.512,0-0.707
			l-1.145-1.145c-0.195-0.195-0.516-0.195-0.707,0c-0.195,0.193-0.195,0.512,0,0.707L39.382,18.811z"/>
	</g>
</g>
<g>
</g>
<g>
</g>
<g>
</g>
<g>
</g>
<g>
</g>
<g>
</g>
<g>
</g>
<g>
</g>
<g>
</g>
<g>
</g>
<g>
</g>
<g>
</g>
<g>
</g>
<g>
</g>
<g>
</g>
</svg>
